<?xml version="1.0" standalone="no"?><!DOCTYPE svg PUBLIC "-//W3C//DTD SVG 1.1//EN" "http://www.w3.org/Graphics/SVG/1.1/DTD/svg11.dtd"><svg t="1735990321443" class="icon" viewBox="0 0 1024 1024" version="1.1" xmlns="http://www.w3.org/2000/svg" p-id="52451" width="256" height="256" xmlns:xlink="http://www.w3.org/1999/xlink"><path d="M859.326 441.034c0-0.096 0.012-0.192 0.012-0.29C859.338 381.742 703.83 0 512 0S164.662 381.742 164.662 440.744c0 0.096 0.012 0.192 0.012 0.29 0 0.09-0.012 0.182-0.012 0.272 0 54.962 234.194 343.898 347.338 343.898 110.712 0 347.338-288.936 347.338-343.898 0-0.094-0.012-0.188-0.012-0.28v0.008z" fill="#135370" p-id="52452"></path><path d="M744.078 433.222h-39.448v-114.404h39.448c20.328 0 36.808 16.48 36.808 36.808v40.788c0 20.33-16.48 36.808-36.808 36.808zM279.922 433.222h39.448v-114.404h-39.448c-20.328 0-36.808 16.48-36.808 36.808v40.788c0 20.33 16.478 36.808 36.808 36.808z" fill="#F4C892" p-id="52453"></path><path d="M646.372 636.95l-24.884-5.002a37.81 37.81 0 0 1-30.36-37.068v-35.852h-162.764v36.758c0 18.01-12.702 33.52-30.36 37.068l-20.378 4.096v136.864h268.744v-136.864h0.002z" fill="#FED9A8" p-id="52454"></path><path d="M512 586.014c-117.508 0-212.768-95.26-212.768-212.768v-59.794c0-117.508 95.26-212.768 212.768-212.768s212.768 95.26 212.768 212.768v59.794c0 117.508-95.26 212.768-212.768 212.768z" fill="#FED9A8" p-id="52455"></path><path d="M512 100.684a212.96 212.96 0 0 0-55.5 7.328c90.592 24.414 157.268 107.134 157.268 205.44v59.794c0 98.306-66.676 181.024-157.268 205.44a213.044 213.044 0 0 0 55.5 7.328c117.508 0 212.768-95.26 212.768-212.768v-59.794c0-117.508-95.26-212.768-212.768-212.768z" fill="#F4CE9F" p-id="52456"></path><path d="M512 319.766c191.514 0 346.818 66.358 347.326 121.268 0-0.096 0.012-0.192 0.012-0.29C859.338 381.742 703.83 0 512 0S164.662 381.742 164.662 440.744c0 0.096 0.012 0.192 0.012 0.29 0.508-54.91 155.812-121.268 347.326-121.268z" fill="#1E608B" p-id="52457"></path><path d="M512 0c-16.89 0-33.498 2.972-49.744 8.41C586.142 49.88 688.92 235.468 734.518 351.96c76.05 24.25 124.524 58.442 124.808 89.074 0-0.096 0.012-0.192 0.012-0.29C859.338 381.742 703.83 0 512 0z" fill="#135370" p-id="52458"></path><path d="M981.02 1000.776c-9.25-68.02-46.846-265.26-175.978-317.076l-147.286-45.922H366.244L218.96 683.7c-129.132 51.816-166.73 249.054-175.98 317.076C41.308 1013.068 50.894 1024 63.3 1024h897.4c12.406 0 21.992-10.932 20.32-23.224z" fill="#1E608B" p-id="52459"></path><path d="M981.02 1000.776c-9.25-68.02-46.846-265.26-175.978-317.076l-147.286-45.922h-113.406l147.286 45.922C848.448 746.624 870.278 1024 870.278 1024h90.422c12.406 0 21.992-10.932 20.32-23.224z" fill="#135370" p-id="52460"></path><path d="M803.192 630.326H220.808c-19.328 0-34.996 15.668-34.996 34.996V997.18h652.378V665.322c-0.002-19.328-15.67-34.996-34.998-34.996z" fill="#CFCFCF" p-id="52461"></path><path d="M803.194 630.326h-111c19.328 0 34.996 15.668 34.996 34.996V997.18h111V665.322c-0.002-19.328-15.67-34.996-34.996-34.996z" fill="#C2C4C6" p-id="52462"></path><path d="M859.242 971.15H164.758c-13.17 0-23.846 10.676-23.846 23.846v5.158c0 13.17 10.676 23.846 23.846 23.846h694.484c13.17 0 23.846-10.676 23.846-23.846v-5.158c0-13.17-10.676-23.846-23.846-23.846z" fill="#9C9DA0" p-id="52463"></path><path d="M859.242 971.15H771.4V1024h87.842c13.17 0 23.846-10.676 23.846-23.846v-5.158c0-13.17-10.676-23.846-23.846-23.846z" fill="#8D8F93" p-id="52464"></path><path d="M512 814.66m-48.964 0a48.964 48.964 0 1 0 97.928 0 48.964 48.964 0 1 0-97.928 0Z" fill="#FFFFFF" p-id="52465"></path><path d="M565.002 375.956c-38.482-14.266-67.194-14.386-106.004 0l6.928 14.142c0.782 1.598 1.656 3.14 2.562 4.662 33.072-11.34 54.206-11.312 87.25 0.11l9.264-18.914zM724.768 373.246v-11.128h-73.13v15.748c0 1.78 0.096 3.548 0.236 5.314h72.662c0.148-3.292 0.232-6.602 0.232-9.934zM299.232 362.12v11.128c0 3.332 0.104 6.64 0.256 9.934h72.874V362.12h-73.13z" fill="#4D4D4D" p-id="52466"></path><path d="M450.97 430.598h-78.812a15.72 15.72 0 0 1-15.72-15.72v-44.866a15.72 15.72 0 0 1 15.72-15.72h98.236a15.72 15.72 0 0 1 15.72 15.72v25.442c0 19.41-15.734 35.144-35.144 35.144zM573.03 430.598h78.812a15.72 15.72 0 0 0 15.72-15.72v-44.866a15.72 15.72 0 0 0-15.72-15.72h-98.236a15.72 15.72 0 0 0-15.72 15.72v25.442c0 19.41 15.734 35.144 35.144 35.144z" fill="#4D4D4D" p-id="52467"></path><path d="M651.842 354.29h-95.426v72.132a34.978 34.978 0 0 0 16.614 4.176h78.812a15.72 15.72 0 0 0 15.72-15.72v-44.866a15.72 15.72 0 0 0-15.72-15.722zM470.394 354.29h-95.478v76.308h76.054c19.41 0 35.144-15.734 35.144-35.144v-25.442a15.72 15.72 0 0 0-15.72-15.722z" fill="#353535" p-id="52468"></path></svg>