<?xml version="1.0" standalone="no"?><!DOCTYPE svg PUBLIC "-//W3C//DTD SVG 1.1//EN" "http://www.w3.org/Graphics/SVG/1.1/DTD/svg11.dtd"><svg t="1735998272746" class="icon" viewBox="0 0 1024 1024" version="1.1" xmlns="http://www.w3.org/2000/svg" p-id="59440" xmlns:xlink="http://www.w3.org/1999/xlink" width="256" height="256"><path d="M859.4 914.3H164.6c-50.4 0-91.4-41-91.4-91.4V347.4c0-50.4 41-91.4 91.4-91.4h540.9v36.6H164.6c-30.3 0-54.9 24.6-54.9 54.9v475.4c0 30.3 24.6 54.9 54.9 54.9h694.9c30.3 0 54.9-24.6 54.9-54.9V347.4c0-30.3-24.6-54.9-54.9-54.9H832V256h27.4c50.4 0 91.4 41 91.4 91.4v475.4c0.1 50.5-41 91.5-91.4 91.5z" p-id="59441" fill="#1296db"></path><path d="M536.9 588.3c-0.5 0-1 0-1.5-0.1l-208.5-16.8c-27.4-3.1-47.3-24-49.1-50.9-1.8-26.9 15.3-50.3 41.4-56.8L457.8 429c13.5-3.4 14-15.1 13.8-18.6-0.2-3.5-1.8-15.1-15.6-17.2l-184.4-27.7c-10-1.5-16.9-10.8-15.4-20.8 1.5-10 10.7-16.7 20.8-15.4L461.4 357c26.6 4 45.4 24.8 46.7 51.6 1.3 26.9-15.4 49.3-41.5 55.9l-138.5 34.6c-14.1 3.5-14 16.4-13.8 18.9 0.2 2.6 1.7 15.3 16.2 17l207.9 16.8c10.1 0.8 17.6 9.6 16.8 19.7-0.9 9.6-8.9 16.8-18.3 16.8zM768 841.1h-1.1l-498.3-29.3c-29-2.4-49.7-24.1-50.7-52.8-1-28.7 18.1-51.8 46.4-56.2l427.4-66.2c14.1-2.8 14-16.2 13.9-18.9-0.2-2.6-1.7-15.9-16.8-17.1l-37.1-3c-10.1-0.8-17.6-9.6-16.8-19.7 0.8-10.1 9.8-17.5 19.7-16.8l37.1 3c28 2.3 48.7 23.4 50.4 51.5 1.6 28.1-16.4 51.5-44 57L269.9 739c-15.3 2.4-15.6 16-15.5 18.7 0.1 2.7 1.4 16.3 16.8 17.6l497.9 29.3c10.1 0.6 17.8 9.3 17.2 19.3-0.6 9.7-8.7 17.2-18.3 17.2z" p-id="59442" fill="#1296db"></path><path d="M513.2 730.3c-3.1 0-6.3-0.8-9.1-2.4-6.6-3.8-10.1-11.3-8.9-18.8l24.5-147.6c1.1-6.6 3.3-12.8 6.6-18.4l243.5-421.8c15.1-26.2 48.7-35.2 74.9-20.1l31.7 18.3c26.2 15.1 35.2 48.8 20.1 74.9L653 616.1c-3.3 5.7-7.6 10.8-12.7 14.9l-115.5 95c-3.3 2.9-7.4 4.3-11.6 4.3z m304.2-600c-6.3 0-12.5 3.3-15.9 9.1L558 561.3c-1.1 1.9-1.8 4-2.2 6.2l-16.5 99.4 77.9-64.1c1.7-1.4 3.1-3.1 4.2-5L864.9 176c5.1-8.7 2-19.9-6.7-25l-31.7-18.3c-2.8-1.6-6-2.4-9.1-2.4z" p-id="59443" fill="#1296db"></path></svg>