<?xml version="1.0" standalone="no"?><!DOCTYPE svg PUBLIC "-//W3C//DTD SVG 1.1//EN" "http://www.w3.org/Graphics/SVG/1.1/DTD/svg11.dtd"><svg t="1735987246280" class="icon" viewBox="0 0 1024 1024" version="1.1" xmlns="http://www.w3.org/2000/svg" p-id="38625" xmlns:xlink="http://www.w3.org/1999/xlink" width="200" height="200"><path d="M812.8 328.8v-0.4c-1.2-31.1-25.8-54.5-57.2-54.5H155.4c-15.6 0-29.9 5.8-40.4 16.3-10.7 10.7-16.5 25.3-16.4 41.1v359.5c-1.6 31.3 21.6 56.8 53.9 59.3 0.4 0 0.9 0.1 1.3 0.1l136.6 1.4c1.6 0 2.9 1.4 2.9 3l0.1 94.4c0 17.4 13.4 31.7 30.4 32.6h2c11.2 0 20.6-4.6 30.6-14.7l118.8-115.6 280.9-1.1c27.5 0 56.7-20.3 56.7-57.8V328.8zM442.5 718.6L335.8 821.4l-0.9-89.7c-0.1-8.4-4.2-16.1-11.1-20.7-5.6-3.7-12.2-5.7-19.2-5.7l-150.4-1.6c-6.8-0.6-9.6-5.9-9.3-10.6V331.2c0-3.5 1.1-6.5 3-8.4 1.8-1.7 4.2-2.5 7.4-2.5h600.5c9.5-0.3 10.4 8.3 10.5 9.7v362.3c0 3.9-1 6.8-2.9 8.6-2.2 2.1-5.5 2.8-7.7 2.8h-0.1l-285.5 1.1c-10.4 0-20.4 5-27.6 13.8z" fill="#4E30DC" p-id="38626"></path><path d="M245.612099 535.857172a33.1 33.1 0 1 0 61.160825-25.333643 33.1 33.1 0 1 0-61.160825 25.333643Z" fill="#FF4E7D" p-id="38627"></path><path d="M360.812479 535.859086a33.1 33.1 0 1 0 61.160825-25.333644 33.1 33.1 0 1 0-61.160825 25.333644Z" fill="#FF4E7D" p-id="38628"></path><path d="M476.01286 535.860999a33.1 33.1 0 1 0 61.160825-25.333643 33.1 33.1 0 1 0-61.160825 25.333643Z" fill="#FF4E7D" p-id="38629"></path><path d="M591.212858 535.862989a33.1 33.1 0 1 0 61.160825-25.333644 33.1 33.1 0 1 0-61.160825 25.333644Z" fill="#FF4E7D" p-id="38630"></path><path d="M938.5 182.8v-0.4c-1.3-31.9-26.5-56-58.8-56H260.9c-16 0-30.8 6-41.6 16.8-10.9 11-17 26-16.9 42.2v45c0 13.1 10.7 23.8 23.8 23.8s23.8-10.7 23.8-23.8v-4.5-40.4c0-3.7 1.1-6.8 3.2-8.8 2.5-2.4 6-2.8 8.5-2.7H880c9.9-0.3 10.9 8.7 11 10.2v373.5c0 4-1 7.1-3 9-2.3 2.2-5.7 3-8.1 2.9h-0.1l-13 0.2c-0.3 0-3.2 0.1-4.8 0.1-13.1 0-23.8 10.7-23.8 23.8s10.7 23.8 23.8 23.8c1.7 0 4.5-0.1 5.2-0.1l13.1-0.2c28.2 0 58.3-20.8 58.3-59.5l-0.1-374.9z" fill="#4E30DC" p-id="38631"></path></svg>