<?xml version="1.0" standalone="no"?><!DOCTYPE svg PUBLIC "-//W3C//DTD SVG 1.1//EN" "http://www.w3.org/Graphics/SVG/1.1/DTD/svg11.dtd"><svg t="1735987184085" class="icon" viewBox="0 0 1024 1024" version="1.1" xmlns="http://www.w3.org/2000/svg" p-id="34131" xmlns:xlink="http://www.w3.org/1999/xlink" width="200" height="200"><path d="M241.6 541.415385c12.430769-4.061538 25.230769-7.876923 38.646154-11.446154-1.353846-16.492308-2.707692-31.261538-3.938462-44.307693h-0.615384c-12.307692-17.969231-19.815385-30.4-22.646154-37.292307-1.476923-3.569231-6.523077-15.753846-18.092308-26.461539-21.661538-20.184615-57.846154-38.153846-78.4-4.923077-21.046154 33.969231 5.169231 74.584615 78.4 121.723077l6.646154 2.707693zM196.184615 558.769231c-2.092308-1.6-4.061538-3.076923-5.907692-4.430769-22.153846-17.353846-46.892308-47.261538-54.769231-56.738462-25.6-30.769231-26.461538-89.476923 0-116.676923 17.6-18.092308 35.938462-25.723077 54.769231-22.892308 16.615385 2.338462 30.276923 6.769231 40.861539 13.169231 6.276923 3.815385 12.061538 7.630769 17.353846 11.446154 3.446154 2.461538 6.523077 5.415385 9.230769 8.492308-1.230769-2.461538-2.338462-5.046154-3.323077-7.753847-1.230769-3.569231-2.584615-9.846154-3.938462-18.953846 5.661538-61.661538 88-96.246154 247.261539-103.261538 151.015385-2.707692 240 21.907692 266.953846 73.969231 0.984615 1.969231 1.723077 4.061538 1.969231 6.153846 0.861538 5.661538 0.615385 11.692308-0.615385 17.846154-2.338462 11.323077-4.430769 17.230769-6.892307 24.36923-2.707692 3.938462-5.661538 53.415385-8.861539 148.184616C874.215385 565.784615 956.307692 625.476923 956.307692 693.415385 956.307692 799.138462 757.415385 884.923077 512 884.923077S67.692308 799.138462 67.692308 693.415385c0-52.553846 49.107692-100.061538 128.492307-134.646154z" fill="#FFFFFF" p-id="34132"></path><path d="M512 914.461538c-125.169231 0-242.461538-21.415385-330.338462-60.430769C89.107692 812.923077 38.153846 755.938462 38.153846 693.415385c0-29.907692 11.446154-58.461538 33.846154-84.923077 17.6-20.8 41.723077-39.876923 71.876923-56.861539l-0.369231-0.369231c-6.030769-6.276923-12.184615-13.046154-18.830769-20.676923-4.184615-4.8-6.523077-7.630769-11.938461-14.153846-35.569231-42.953846-34.830769-118.892308 1.6-156.184615 24.246154-24.861538 51.938462-35.692308 80.246153-31.384616 11.692308 1.723077 22.4 4.307692 32.123077 7.753847 11.076923-30.4 37.415385-54.4 78.4-71.507693 44.8-18.707692 107.446154-29.661538 191.384616-33.476923h0.738461c80.984615-1.476923 143.630769 4.553846 191.630769 18.338462 50.707692 14.646154 85.046154 38.646154 102.03077 71.507692 2.461538 4.8 4.184615 9.969231 5.046154 15.384615 1.353846 9.107692 1.107692 18.707692-0.984616 28.307693-1.107692 5.538462-2.338462 10.215385-3.692308 14.892307-0.861538 2.830769-1.6 5.538462-2.830769 8.984616-0.369231 1.107692-0.369231 1.107692-1.353846 3.938461l-0.123077 0.246154c-0.123077 0.984615-0.369231 2.461538-0.615384 4.923077-0.615385 6.153846-1.353846 15.384615-2.092308 27.2-1.230769 20.184615-2.461538 48.615385-3.815385 84.553846 130.584615 40.615385 205.046154 107.076923 205.046154 183.507693 0 62.523077-50.953846 119.507692-143.507692 160.615384C754.461538 893.046154 637.169231 914.461538 512 914.461538zM182.646154 357.415385c-16.246154 0-32 7.876923-47.138462 23.384615-25.969231 26.584615-25.969231 85.538462 0 116.676923 5.415385 6.523077 7.507692 9.107692 11.569231 13.661539 6.276923 7.261538 12.061538 13.661538 17.723077 19.56923 4.8 5.046154 9.476923 9.6 13.784615 13.661539l15.753847 14.523077-19.2 9.6c-35.2 17.6-62.276923 37.538462-80.738462 59.2C76.676923 648.615385 67.692308 670.769231 67.692308 693.415385c0 50.092308 44.8 97.6 126.030769 133.661538 84.061538 37.292308 197.169231 57.846154 318.276923 57.846154 121.107692 0 234.215385-20.553846 318.276923-57.846154 81.230769-36.061538 126.030769-83.446154 126.030769-133.661538 0-63.507692-72.861538-122.830769-194.830769-158.523077l-10.953846-3.2 0.369231-11.446154c1.476923-41.6 2.830769-74.092308 4.184615-96.615385 0.738462-12.307692 1.476923-21.907692 2.215385-28.553846 0.369231-3.446154 0.738462-6.030769 1.107692-7.876923l0.246154-1.230769 0.861538-2.338462c0.861538-2.707692 0.984615-2.830769 1.23077-3.692307 0.984615-3.076923 1.723077-5.415385 2.461538-7.876924 1.107692-3.938462 2.092308-8 3.076923-12.8 1.353846-6.153846 1.476923-12.184615 0.615385-17.846153-0.369231-2.215385-0.984615-4.307692-1.969231-6.153847-13.169231-25.353846-41.476923-44.430769-84.061539-56.738461-44.676923-13.046154-106.215385-18.830769-183.138461-17.353846-79.261538 3.446154-140.184615 14.030769-181.169231 31.138461-38.769231 16.246154-60.8 38.892308-65.353846 67.323077l-3.323077 20.923077-18.461538-10.461538c-10.215385-5.784615-23.384615-9.846154-39.015385-12.061539-2.584615-0.369231-5.169231-0.615385-7.753846-0.615384zM240 583.507692L223.630769 534.153846l-2.092307-1.107692 0.984615-2.338462-0.123077-0.492307c-29.661538-20.307692-50.338462-39.507692-61.784615-57.23077-13.046154-20.184615-14.276923-39.015385-3.815385-55.876923 9.230769-14.892308 22.276923-20.923077 38.892308-17.6 12.553846 2.461538 26.953846 10.707692 39.630769 22.4 4.923077 4.553846 9.230769 9.969231 12.8 15.876923 2.092308 3.446154 3.569231 6.523077 5.292308 10.584616 1.969231 4.923077 6.523077 12.676923 13.292307 23.384615l24.615385-2.338461v43.938461l7.876923 29.907692-43.692308 3.692308-15.507692 36.553846z m-52.8-155.446154c-1.846154 0-3.076923 0.984615-5.415385 4.553847-2.830769 4.676923-5.169231 10.707692 3.569231 24.36923 6.892308 10.707692 22.769231 28.430769 59.076923 52.553847 1.476923-0.492308 2.830769-0.861538 4.307693-1.353847-0.369231-3.938462-0.738462-7.753846-0.984616-11.323077-11.692308-17.476923-18.461538-28.923077-21.907692-37.292307-0.984615-2.338462-1.723077-4.061538-3.323077-6.646154-2.215385-3.569231-4.676923-6.769231-7.630769-9.476923-8.492308-7.876923-18.215385-13.661538-25.23077-15.138462-0.861538-0.123077-1.723077-0.246154-2.461538-0.246154z" fill="#1C1B55" p-id="34133"></path><path d="M286.289231 613.538462c-46.892308-26.215385-78.892308-45.907692-96-59.323077-22.153846-17.353846-46.892308-47.261538-54.769231-56.738462-25.6-30.769231-26.461538-89.476923 0-116.676923 17.6-18.092308 35.938462-25.723077 54.769231-22.892308 16.615385 2.338462 30.276923 6.769231 40.861538 13.169231 6.276923 3.815385 12.061538 7.630769 17.353846 11.446154 3.323077 2.461538 6.276923 5.169231 8.861539 8.123077-0.984615-2.338462-1.969231-4.676923-2.953846-7.384616-1.230769-3.569231-2.584615-9.846154-3.938462-18.953846 1.476923-65.6 81.846154-102.030769 241.107692-109.16923 150.892308-2.707692 241.969231 23.753846 272.984616 79.630769 1.230769 2.092308 1.969231 4.430769 2.338461 6.892307 0.738462 5.538462 0.492308 11.323077-0.738461 17.353847-2.338462 11.323077-4.430769 17.230769-6.892308 24.36923-3.938462 5.661538-8.246154 104-13.046154 294.892308-0.246154 12.184615-4.184615 24-11.076923 33.969231-39.261538 56.246154-116.430769 83.569231-231.630769 82.092308-131.446154-6.4-201.723077-39.753846-210.953846-100.061539-2.215385-29.046154-4.307692-56-6.276923-80.738461z m-4.553846-55.261539c-2.461538-28.923077-4.676923-53.538462-6.646154-73.969231-8-15.507692-13.415385-26.461538-16.123077-33.107692-1.476923-3.569231-12.307692-18.461538-23.753846-29.169231-21.661538-20.184615-57.846154-38.153846-78.4-4.923077-21.046154 33.969231 5.169231 74.584615 78.4 121.723077l46.523077 19.446154z" fill="#D4F1FF" p-id="34134"></path><path d="M512.012308 824.123077h-9.969231c-70.276923-3.446154-123.446154-14.153846-162.584615-32.615385-44.430769-21.046154-70.030769-52.184615-76.061539-92.553846l-0.246154-2.215384c-1.723077-23.015385-3.446154-44.923077-5.046154-65.107693-41.107692-23.261538-69.292308-40.984615-86.030769-54.030769-3.2-2.584615-6.646154-5.415385-10.092308-8.492308-5.784615-5.169231-11.938462-11.076923-18.461538-17.846154-6.030769-6.276923-12.184615-13.046154-18.830769-20.676923-4.184615-4.8-6.523077-7.630769-11.938462-14.153846-35.569231-42.953846-34.830769-118.892308 1.6-156.184615 24.246154-24.861538 51.938462-35.692308 80.246154-31.384616 11.076923 1.6 21.415385 4.061538 30.646154 7.261539 11.938462-39.138462 45.907692-62.276923 74.338461-75.2 44.061538-20.061538 106.338462-31.507692 190.646154-35.323077h0.738462c164.307692-2.953846 262.276923 28.061538 299.323077 94.892308 2.953846 5.292308 4.923077 11.076923 5.784615 17.107692 1.230769 8.861538 0.861538 18.215385-1.107692 27.569231-1.107692 5.538462-2.338462 10.215385-3.692308 14.892307-0.861538 2.830769-1.6 5.538462-2.830769 8.984616-0.369231 1.107692-0.369231 1.107692-1.353846 3.938461l-0.123077 0.246154c0 0.246154-0.123077 0.492308-0.123077 0.861539-0.246154 2.092308-0.738462 6.153846-1.353846 13.415384-0.984615 12.553846-2.092308 31.261538-3.076923 55.384616-2.215385 48.738462-4.430769 121.476923-6.892308 216.36923-0.492308 17.969231-6.153846 35.323077-16.369231 50.092308-22.892308 32.738462-56.615385 57.353846-100.184615 73.107692-39.753846 14.4-89.230769 21.661538-146.953846 21.661539z m-8.615385-29.538462c57.969231 0.738462 107.076923-5.907692 145.723077-19.938461 37.784615-13.661538 66.707692-34.584615 85.907692-62.153846 7.015385-9.969231 10.830769-21.784615 11.076923-33.969231 2.338462-95.015385 4.676923-168 6.892308-216.984615 1.107692-24.492308 2.092308-43.446154 3.2-56.369231 0.492308-6.523077 0.984615-11.569231 1.476923-15.138462 0.123077-1.230769 0.369231-2.338462 0.492308-3.076923l0.246154-0.984615 0.738461-2.338462c0.861538-2.707692 0.984615-2.830769 1.230769-3.692307 0.984615-3.076923 1.723077-5.415385 2.461539-7.876924 1.107692-3.938462 2.092308-8 3.076923-12.8 1.230769-6.030769 1.476923-11.938462 0.738462-17.353846-0.369231-2.461538-1.107692-4.8-2.338462-6.892307-15.138462-27.323077-45.046154-47.876923-88.861538-61.046154-45.538462-13.784615-107.569231-20.061538-184.123077-18.584616-79.261538 3.569231-139.692308 14.523077-179.692308 32.738462-37.538462 16.984615-57.969231 40.861538-60.923077 70.646154l-2.215385 22.4-19.692307-10.953846c-10.215385-5.661538-23.261538-9.723077-38.646154-11.938462-18.830769-2.830769-37.292308 4.8-54.892308 22.769231-25.969231 26.584615-25.969231 85.415385 0 116.676923 5.415385 6.523077 7.507692 9.107692 11.569231 13.661538 6.276923 7.261538 12.061538 13.661538 17.723077 19.569231 5.907692 6.153846 11.569231 11.569231 16.738461 16.246154 2.953846 2.707692 5.907692 5.169231 8.738462 7.261538 16.246154 12.676923 46.153846 31.261538 89.107692 55.507693l6.892308 3.815384 0.615385 7.876923c1.723077 22.4 3.692308 46.892308 5.661538 72.984616 4.553846 30.030769 24.615385 53.661538 59.569231 70.276923 35.2 16.369231 86.153846 26.461538 151.507692 29.661538z m-221.538461-236.307692l-46.646154-19.569231-1.107693-0.738461c-35.938462-23.261538-60.676923-45.046154-73.476923-65.107693-13.046154-20.184615-14.276923-39.015385-3.815384-55.876923 9.230769-14.892308 22.276923-20.923077 38.892307-17.6 12.553846 2.461538 26.953846 10.707692 39.63077 22.4 5.046154 4.676923 10.584615 10.830769 15.630769 17.353847 2.092308 2.584615 3.938462 5.169231 5.415384 7.384615 0.738462 0.984615 1.230769 1.969231 1.723077 2.707692l0.738462 1.230769 0.369231 0.861539c2.584615 6.276923 7.507692 16.492308 14.646154 30.276923l1.353846 2.461538 0.246154 2.83077c1.353846 13.661538 2.830769 29.415385 4.307692 46.892307l2.092308 24.492308z m-94.646154-130.215385c-1.846154 0-3.076923 0.984615-5.415385 4.553847-2.830769 4.676923-5.169231 10.707692 3.569231 24.36923 7.138462 11.076923 23.876923 29.538462 62.646154 55.015385-0.615385-6.769231-1.230769-13.046154-1.846154-19.076923-6.523077-12.923077-11.076923-22.4-13.907692-29.046154-0.123077-0.246154-0.246154-0.492308-0.492308-0.738461-1.107692-1.6-2.584615-3.569231-4.184616-5.661539-4.184615-5.292308-8.615385-10.215385-12.553846-13.907692-8.492308-7.876923-18.215385-13.661538-25.230769-15.138462-1.107692-0.246154-1.846154-0.369231-2.584615-0.369231z" fill="#1C1B55" p-id="34135"></path><path d="M448.012308 785.723077c92.061538 14.4 162.707692 9.353846 211.815384-15.384615s77.784615-51.076923 85.784616-79.015385l5.415384-165.784615c-9.107692 93.784615-24.369231 151.507692-45.784615 173.292307-32.123077 32.738462-50.461538 45.661538-95.753846 64.123077-30.153846 12.184615-83.938462 19.815385-161.476923 22.769231z" fill="#80CFF5" p-id="34136"></path><path d="M506.473846 429.169231c120.861538 0 218.830769-30.276923 218.830769-67.692308s-97.969231-75.2-218.830769-75.2-218.830769 37.784615-218.830769 75.2 97.969231 67.692308 218.830769 67.692308z" fill="#FFF7A6" p-id="34137"></path><path d="M506.473846 443.938462c-59.938462 0-116.430769-7.261538-159.138461-20.553847-33.969231-10.461538-74.461538-29.661538-74.461539-61.907692 0-25.230769 26.215385-48.492308 73.846154-65.6 44.184615-15.753846 100.923077-24.492308 159.630769-24.492308s115.569231 8.615385 159.630769 24.492308c47.630769 16.984615 73.846154 40.246154 73.846154 65.6 0 32.246154-40.492308 51.446154-74.461538 62.030769-42.584615 13.169231-99.076923 20.430769-158.892308 20.43077z m0-142.892308c-54.646154 0-109.292308 8.246154-149.784615 22.769231-42.953846 15.261538-54.276923 31.384615-54.276923 37.661538 0 3.938462 4.061538 9.230769 11.2 14.4 9.6 7.015385 24.246154 13.661538 42.584615 19.323077 40 12.307692 93.292308 19.2 150.4 19.2s110.4-6.769231 150.4-19.2c18.215385-5.661538 32.984615-12.307692 42.584615-19.323077 7.138462-5.169231 11.2-10.461538 11.2-14.4 0-6.4-11.323077-22.4-54.276923-37.661538-40.738462-14.523077-95.384615-22.769231-150.030769-22.769231z" fill="#1C1B55" p-id="34138"></path><path d="M162.707692 362.830769c-15.507692 5.415385-28.553846 17.969231-39.138461 37.784616-9.107692 16.369231-8.861538 53.046154 0 76.307692 2.338462 6.030769 7.507692 13.784615 15.753846 23.138461-8.984615-43.2-8.984615-74.584615 0-94.030769s16.738462-33.846154 23.384615-43.2z" fill="#FFFFFF" p-id="34139"></path><path d="M385.107692 372.676923c-37.415385-30.646154-56.246154-59.076923-56.492307-85.415385-0.369231-39.507692 42.461538-60.8 42.461538-78.76923 0-12.061538-14.153846-39.630769-42.461538-82.953846 42.092308 18.953846 68.553846 40 79.384615 63.015384 16.246154 34.584615-9.107692 41.723077 0 70.4 6.153846 19.076923-2.953846 32.984615-27.2 41.6l4.307692 72.123077z" fill="#FFFFFF" p-id="34140"></path><path d="M385.107692 383.138462c-2.338462 0-4.676923-0.861538-6.646154-2.338462-40.246154-32.984615-60.061538-63.630769-60.307692-93.415385-0.246154-27.692308 17.230769-47.261538 29.907692-61.538461 5.292308-5.907692 12.553846-14.030769 12.553847-17.353846 0-4.430769-3.938462-20.923077-40.738462-77.292308-2.584615-3.938462-2.215385-8.984615 0.861539-12.553846 3.076923-3.569231 8-4.676923 12.184615-2.707692 44.923077 20.184615 72.615385 42.461538 84.553846 68.061538 10.707692 22.769231 5.907692 36.8 2.092308 48.123077-2.707692 8.123077-4.676923 13.907692-1.6 23.630769 4.307692 13.292308 6.030769 37.046154-26.338462 51.692308l3.815385 64.738461c0.246154 4.184615-1.969231 8-5.661539 9.969231-1.476923 0.615385-3.076923 0.984615-4.676923 0.984616z m-27.076923-230.276924c20.430769 34.584615 23.507692 48 23.507693 55.63077 0 11.2-8.246154 20.553846-17.846154 31.261538-11.692308 13.046154-24.861538 27.938462-24.615385 47.384616 0.123077 18.461538 11.692308 38.769231 34.092308 60.923076l-2.830769-47.015384c-0.246154-4.676923 2.584615-8.861538 6.892307-10.461539 26.830769-9.6 22.769231-22.4 20.8-28.553846-5.169231-16.246154-1.353846-27.569231 1.723077-36.676923 3.323077-9.6 5.907692-17.230769-1.230769-32.492308-6.523077-13.784615-20.061538-27.323077-40.492308-40z" fill="#1C1B55" p-id="34141"></path><path d="M446.646154 826.953846c48.369231 8.738462 118.769231 9.107692 184.369231-2.215384 108.923077-18.707692 147.692308-52.430769 169.353846-93.292308 6.769231-12.923077 10.461538-34.707692 4.184615-59.076923-2.953846-11.446154-11.815385-30.523077-26.461538-56.984616l-3.2 72.369231c-0.123077 3.815385-0.861538 7.630769-1.846154 11.323077-5.169231 17.846154-13.415385 32.615385-24.369231 44.061539-19.076923 19.938462-26.953846 25.476923-38.523077 31.384615-79.015385 40.615385-119.384615 50.215385-207.507692 50.215385-58.830769 0-120.615385-15.384615-185.6-46.03077 28.430769 21.784615 71.753846 37.784615 129.6 48.246154z" fill="#D4F1FF" p-id="34142"></path><path d="M588.430769 398.769231h-0.738461c-32.123077-2.830769-42.461538-20.553846-45.415385-34.830769-4.307692-20.676923 3.938462-36.923077 23.753846-47.015385 3.938462-1.969231 8.738462-0.492308 10.707693 3.446154 1.969231 3.938462 0.492308 8.738462-3.446154 10.707692-13.415385 6.892308-18.215385 16-15.384616 29.538462 1.723077 8.492308 6.892308 19.938462 31.261539 22.153846 4.430769 0.369231 7.630769 4.307692 7.261538 8.615384-0.492308 4.307692-3.938462 7.384615-8 7.384616z" fill="#1C1B55" p-id="34143"></path><path d="M328.615385 441.846154c57.353846 26.707692 118.523077 40.123077 183.384615 40.123077s128.984615-16.984615 192.369231-51.076923c-86.769231 21.292308-150.769231 32.615385-192.369231 33.846154-41.476923 1.230769-102.646154-6.4-183.384615-22.892308z" fill="#FFFFFF" p-id="34144"></path><path d="M777.230769 140.430769c10.953846 8.246154 13.169231 23.753846 4.923077 34.707693L641.476923 361.846154c-6.153846 8.123077-17.723077 9.723077-25.846154 3.692308l-10.092307-7.63077c-8.123077-6.153846-9.723077-17.723077-3.692308-25.846154l140.676923-186.707692c8.246154-10.953846 23.753846-13.169231 34.707692-4.923077z" fill="#D4F1FF" p-id="34145"></path><path d="M626.707692 381.415385c-6.4 0-12.923077-1.969231-18.461538-6.153847l-10.092308-7.630769c-6.523077-4.923077-10.830769-12.184615-11.938461-20.307692-1.107692-8.123077 0.984615-16.246154 5.907692-22.769231l140.553846-186.584615c12.307692-16.369231 35.692308-19.569231 51.938462-7.261539 16.369231 12.307692 19.569231 35.692308 7.261538 51.938462L651.323077 369.230769c-6.030769 8-15.261538 12.184615-24.615385 12.184616z m135.63077-233.6c-3.815385 0-7.507692 1.723077-9.969231 4.923077L611.692308 339.323077c-1.353846 1.723077-1.353846 3.569231-1.23077 4.553846 0.123077 0.984615 0.615385 2.707692 2.338462 4.061539l10.092308 7.630769c2.707692 2.092308 6.523077 1.476923 8.615384-1.230769l140.8-186.461539c4.184615-5.538462 3.076923-13.415385-2.461538-17.476923-2.215385-1.846154-4.923077-2.584615-7.507692-2.584615z" fill="#1C1B55" p-id="34146"></path></svg>