<?xml version="1.0" standalone="no"?><!DOCTYPE svg PUBLIC "-//W3C//DTD SVG 1.1//EN" "http://www.w3.org/Graphics/SVG/1.1/DTD/svg11.dtd"><svg t="1735974141650" class="icon" viewBox="0 0 1024 1024" version="1.1" xmlns="http://www.w3.org/2000/svg" p-id="8514" xmlns:xlink="http://www.w3.org/1999/xlink" width="200" height="200"><path d="M926.742857 458.628571c-0.914286-17.371429-5.257143-34.514286-8.114286-51.771428-5.371429 12.685714-8 25.142857-10.514285 37.714286-20.8 101.942857-90.514286 161.714286-194.742857 168.342857-8.8 0.571429-19.428571 5.942857-25.485715 12.571428-21.714286 23.885714-33.6 28.228571-63.428571 15.771429-18.4-7.657143-36.114286-11.885714-56.457143-7.657143-28.114286 5.828571-41.6-0.914286-53.828571-27.428571-9.028571-19.542857-23.085714-30.057143-42.857143-36-51.428571-15.542857-87.085714-49.714286-105.6-99.314286-36.114286-96.685714-11.428571-184 45.6-265.142857 5.942857-8.457143 13.714286-13.028571 24.342857-7.771429 14.171429 7.085714 26.171429 1.6 37.942857-6.171428 22.057143-14.514286 44.571429-28.342857 66.171429-43.428572 6.171429-4.342857 13.028571-11.428571 14.514285-18.4 7.885714-36.457143-28.571429-88.114286-65.6-91.771428-40-4-69.142857 16-89.714285 48.457142-16.914286 26.628571-14.171429 54.057143 2.971428 79.771429 7.428571 11.085714 6.742857 18.857143-4.342857 26.628571-10.057143 7.085714-19.314286 15.428571-28.8 23.428572-61.142857 52.342857-93.371429 118.514286-95.885714 199.085714-0.8 24.685714 0.457143 49.6-2.057143 74.171429-4.342857 42.971429-9.828571 85.6 4.914286 127.771428 1.371429 3.885714 2.057143 8 2.4 12.114286 0.914286 12.114286-4.8 14.971429-15.085715 9.828571-4.228571-2.057143-8.114286-4.914286-11.885714-7.542857-37.257143-26.4-62.285714-62.514286-80.457143-103.542857-45.6-102.742857-41.828571-201.485714 26.628572-294.057143 9.6-12.914286 21.028571-24.457143 31.657142-36.571428-43.771429 22.971429-74.742857 58.628571-98.285714 100.571428-26.971429 48.228571-41.371429 100.457143-38.171428 156.114286 3.885714 66.857143 5.6 134.285714 16.228571 200.114286 7.314286 45.142857 26.171429 89.028571 43.657143 131.885714 21.714286 52.914286 60.914286 84.114286 121.028571 83.885714 48-0.114286 58.285714-13.828571 44.8-59.2-6.057143-20.228571-10.285714-41.142857-13.6-61.942857-0.914286-5.714286 4.228571-12.342857 6.514286-18.514286 4.685714 4.571429 11.085714 8.342857 13.942857 13.942858 9.714286 19.542857 17.828571 39.771429 27.085714 59.542857C376.457143 855.428571 398.857143 908.571429 445.714286 945.371429c51.542857 40.457143 108.8 51.085714 171.085714 31.2 23.2-7.428571 27.542857-16.8 17.142857-38.514286-16.8-35.085714-25.714286-72-29.6-110.285714-3.657143-35.542857-3.085714-71.314286 15.542857-103.085715 5.828571-9.828571 18.628571-20 29.257143-21.371428 14.285714-1.828571 23.085714 13.257143 24.114286 26.057143 2.628571 30.857143 3.771429 61.942857 2.628571 92.8-0.914286 23.885714-8.457143 47.542857-9.485714 71.428571-1.257143 30.057143 17.828571 53.028571 43.885714 51.314286 48.685714-3.314286 92.342857-18.742857 117.942857-65.142857 23.885714-43.428571 43.2-88.571429 59.2-135.657143 31.657143-93.028571 44.8-187.885714 39.314286-285.485715zM886.285714 97.485714c-23.542857-14.514286-49.371429-16.571429-73.942857-3.2-25.257143 13.714286-39.085714 36.342857-45.028571 69.142857 3.657143 5.371429 7.657143 14.514286 14.285714 20.342858 20.228571 17.714286 42.628571 33.028571 62.057143 51.428571 13.942857 13.257143 28 15.2 42.971428 6.514286 21.485714-12.457143 37.371429-30.628571 43.314286-55.428572 7.771429-32.228571-9.142857-67.542857-43.657143-88.8z" p-id="8515"></path><path d="M757.142857 382.857143c-15.885714-8.228571-32.8-9.714286-45.828571 3.542857-14.742857 14.857143-31.771429 32.685714-24.457143 55.085714 8.228571 25.371429 21.942857 49.257143 35.428571 72.457143 4.8 8.342857 16.114286 12.914286 20.342857 16 23.771429-1.142857 37.714286-7.885714 47.2-22.057143 24.571429-37.257143 7.085714-104.342857-32.685714-125.028571zM559.085714 372.571429c-9.6-21.142857-29.028571-29.485714-50.971428-22.171429-37.028571 12.457143-61.257143 46.4-61.257143 85.714286 0 28.228571 11.885714 48.342857 32.457143 54.971428 19.771429 6.4 35.771429-1.371429 54.171428-26.171428 4.914286-6.628571 9.257143-13.942857 15.428572-19.2 25.257143-21.6 22.171429-46.628571 10.171428-73.142857zM639.542857 562.742857c-19.2-4.8-38.971429-7.657143-60-11.428571-6.971429 2.171429-15.314286 3.314286-22.171428 7.314285-7.542857 4.342857-8.457143 12.114286 0.114285 16.571429 25.714286 13.257143 50.057143 37.257143 81.828572 13.257143 5.142857-3.885714 9.942857-8.228571 14.971428-12.342857-4.914286-4.571429-9.028571-11.885714-14.742857-13.371429z" p-id="8516"></path><path d="M926.742857 458.628571c-0.914286-17.371429-5.257143-34.514286-8.114286-51.771428-5.371429 12.685714-8 25.142857-10.514285 37.714286-20.8 101.942857-90.514286 161.714286-194.742857 168.342857-8.8 0.571429-19.428571 5.942857-25.485715 12.571428-21.714286 23.885714-33.6 28.228571-63.428571 15.771429-18.4-7.657143-36.114286-11.885714-56.457143-7.657143-28.114286 5.828571-41.6-0.914286-53.828571-27.428571-9.028571-19.542857-23.085714-30.057143-42.857143-36-51.428571-15.542857-87.085714-49.714286-105.6-99.314286-36.114286-96.685714-11.428571-184 45.6-265.142857 5.942857-8.457143 13.714286-13.028571 24.342857-7.771429 14.171429 7.085714 26.171429 1.6 37.942857-6.171428 22.057143-14.514286 44.571429-28.342857 66.171429-43.428572 6.171429-4.342857 13.028571-11.428571 14.514285-18.4 7.885714-36.457143-28.571429-88.114286-65.6-91.771428-40-4-69.142857 16-89.714285 48.457142-16.914286 26.628571-14.171429 54.057143 2.971428 79.771429 7.428571 11.085714 6.742857 18.857143-4.342857 26.628571-10.057143 7.085714-19.314286 15.428571-28.8 23.428572-61.142857 52.342857-93.371429 118.514286-95.885714 199.085714-0.8 24.685714 0.457143 49.6-2.057143 74.171429-4.342857 42.971429-9.828571 85.6 4.914286 127.771428 1.371429 3.885714 2.057143 8 2.4 12.114286 0.914286 12.114286-4.8 14.971429-15.085715 9.828571-4.228571-2.057143-8.114286-4.914286-11.885714-7.542857-37.257143-26.4-62.285714-62.514286-80.457143-103.542857-45.6-102.742857-41.828571-201.485714 26.628572-294.057143 9.6-12.914286 21.028571-24.457143 31.657142-36.571428-43.771429 22.971429-74.742857 58.628571-98.285714 100.571428-26.971429 48.228571-41.371429 100.457143-38.171428 156.114286 3.885714 66.857143 5.6 134.285714 16.228571 200.114286 7.314286 45.142857 26.171429 89.028571 43.657143 131.885714 21.714286 52.914286 60.914286 84.114286 121.028571 83.885714 48-0.114286 58.285714-13.828571 44.8-59.2-6.057143-20.228571-10.285714-41.142857-13.6-61.942857-0.914286-5.714286 4.228571-12.342857 6.514286-18.514286 4.685714 4.571429 11.085714 8.342857 13.942857 13.942858 9.714286 19.542857 17.828571 39.771429 27.085714 59.542857C376.457143 855.428571 398.857143 908.571429 445.714286 945.371429c51.542857 40.457143 108.8 51.085714 171.085714 31.2 23.2-7.428571 27.542857-16.8 17.142857-38.514286-16.8-35.085714-25.714286-72-29.6-110.285714-3.657143-35.542857-3.085714-71.314286 15.542857-103.085715 5.828571-9.828571 18.628571-20 29.257143-21.371428 14.285714-1.828571 23.085714 13.257143 24.114286 26.057143 2.628571 30.857143 3.771429 61.942857 2.628571 92.8-0.914286 23.885714-8.457143 47.542857-9.485714 71.428571-1.257143 30.057143 17.828571 53.028571 43.885714 51.314286 48.685714-3.314286 92.342857-18.742857 117.942857-65.142857 23.885714-43.428571 43.2-88.571429 59.2-135.657143 31.657143-93.028571 44.8-187.885714 39.314286-285.485715z" p-id="8517"></path><path d="M547.085714 641.942857c6.057143 25.142857 27.771429 39.085714 56.8 37.942857 23.085714-0.914286 35.885714-9.714286 38.171429-25.371428-31.2-4.114286-62.285714-8.228571-94.971429-12.571429zM886.285714 97.485714c-23.542857-14.514286-49.371429-16.571429-73.942857-3.2-25.257143 13.714286-39.085714 36.342857-45.028571 69.142857 3.657143 5.371429 7.657143 14.514286 14.285714 20.342858 20.228571 17.714286 42.628571 33.028571 62.057143 51.428571 13.942857 13.257143 28 15.2 42.971428 6.514286 21.485714-12.457143 37.371429-30.628571 43.314286-55.428572 7.771429-32.228571-9.142857-67.542857-43.657143-88.8zM757.142857 382.857143c-15.885714-8.228571-32.8-9.714286-45.828571 3.542857-14.742857 14.857143-31.771429 32.685714-24.457143 55.085714 8.228571 25.371429 21.942857 49.257143 35.428571 72.457143 4.8 8.342857 16.114286 12.914286 20.342857 16 23.771429-1.142857 37.714286-7.885714 47.2-22.057143 24.571429-37.257143 7.085714-104.342857-32.685714-125.028571zM559.085714 372.571429c-9.6-21.142857-29.028571-29.485714-50.971428-22.171429-37.028571 12.457143-61.257143 46.4-61.257143 85.714286 0 28.228571 11.885714 48.342857 32.457143 54.971428 19.771429 6.4 35.771429-1.371429 54.171428-26.171428 4.914286-6.628571 9.257143-13.942857 15.428572-19.2 25.257143-21.6 22.171429-46.628571 10.171428-73.142857zM639.542857 562.742857c-19.2-4.8-38.971429-7.657143-60-11.428571-6.971429 2.171429-15.314286 3.314286-22.171428 7.314285-7.542857 4.342857-8.457143 12.114286 0.114285 16.571429 25.714286 13.257143 50.057143 37.257143 81.828572 13.257143 5.142857-3.885714 9.942857-8.228571 14.971428-12.342857-4.914286-4.571429-9.028571-11.885714-14.742857-13.371429z" p-id="8518"></path><path d="M547.085714 641.942857c6.057143 25.142857 27.771429 39.085714 56.8 37.942857 23.085714-0.914286 35.885714-9.714286 38.171429-25.371428-31.2-4.114286-62.285714-8.228571-94.971429-12.571429z" p-id="8519"></path></svg>